<?xml version="1.0" standalone="no"?>
<!DOCTYPE svg PUBLIC "-//W3C//DTD SVG 20010904//EN"
 "http://www.w3.org/TR/2001/REC-SVG-20010904/DTD/svg10.dtd">
<svg version="1.0" xmlns="http://www.w3.org/2000/svg"
 width="512.000000pt" height="512.000000pt" viewBox="0 0 512.000000 512.000000"
 preserveAspectRatio="xMidYMid meet">

<g transform="translate(0.000000,512.000000) scale(0.100000,-0.100000)"
fill="#000000" stroke="none">
<path d="M4200 4335 l-465 -245 -555 0 -554 0 -326 -325 -326 -325 -782 0
c-746 0 -783 -1 -800 -18 -17 -17 -19 -46 -26 -296 -7 -283 -4 -307 31 -321
18 -7 420 -118 1038 -286 196 -54 335 -97 342 -106 7 -8 26 -54 43 -102 105
-289 152 -621 130 -918 -15 -197 -38 -319 -111 -576 l-62 -218 20 -27 20 -27
882 -3 c870 -2 881 -2 901 18 19 19 20 33 20 224 0 112 -3 212 -6 220 -4 9
-59 51 -123 93 -278 183 -484 462 -576 778 -48 165 -55 249 -55 653 l0 373 61
71 c68 79 112 164 130 247 16 77 6 213 -20 281 -11 30 -21 61 -21 68 0 9 107
12 510 11 281 -1 513 0 515 2 41 41 717 901 722 917 8 33 -26 76 -63 79 -21 2
-154 -63 -494 -242z m-11 -324 c-106 -133 -195 -241 -199 -241 -3 0 -47 42
-98 93 l-93 94 288 151 c158 82 289 149 291 147 2 -2 -83 -112 -189 -244z
m-984 -181 l110 -110 -210 0 -210 0 -110 110 -110 110 210 0 210 0 110 -110z
m490 0 l110 -110 -130 0 -130 0 -110 110 -110 110 130 0 130 0 110 -110z
m-1032 -98 l87 -87 -98 -98 -97 -97 -180 0 -180 0 185 185 c102 102 187 185
190 185 3 0 45 -39 93 -88z m225 -249 c24 -51 27 -70 27 -158 0 -141 -20 -179
-186 -351 -83 -85 -129 -140 -129 -154 0 -11 12 -32 26 -47 20 -20 32 -24 59
-20 l33 5 5 -351 c4 -313 7 -363 26 -448 78 -353 258 -655 521 -874 48 -40
115 -89 149 -110 l61 -38 0 -128 0 -129 -765 0 c-421 0 -765 3 -765 8 0 4 20
77 44 163 121 427 133 808 40 1226 -13 61 -36 144 -49 184 -14 40 -23 74 -21
76 2 2 24 -1 49 -8 76 -19 213 -8 277 22 79 37 130 88 130 129 0 70 -66 92
-124 43 -50 -42 -105 -63 -171 -63 -75 0 -121 12 -211 56 -51 25 -267 89 -738
218 -366 100 -668 185 -671 188 -3 3 -2 90 2 194 l8 189 948 3 c521 1 947 -1
947 -5 0 -3 -27 -34 -60 -69 -50 -52 -60 -68 -60 -98 0 -25 6 -39 22 -50 51
-36 60 -29 308 219 129 129 236 235 238 235 2 0 15 -26 30 -57z"/>
</g>
</svg>
